<?xml version="1.0" encoding="utf-8" ?>
<svg xmlns="http://www.w3.org/2000/svg" xmlns:xlink="http://www.w3.org/1999/xlink" width="1024" height="1024">
	<path fill="#1E314C" d="M501.306 106.826C724.868 101.07 910.812 277.548 916.732 501.107C922.652 724.665 746.31 910.738 522.756 916.822C298.97 922.912 112.662 746.347 106.736 522.557C100.81 298.767 277.511 112.588 501.306 106.826ZM512.908 706.209L702.405 585.419C730.511 567.289 758.75 549.368 787.12 531.656C797.175 525.387 807.042 518.52 817.299 512.617C805.427 503.47 788.349 493.7 775.414 485.411C746.412 467.151 717.517 448.722 688.731 430.125C647.096 403.116 605.265 376.41 563.241 350.011C546.568 339.52 529.582 327.622 512.486 317.98C488.782 332.267 465.663 347.586 442.339 362.482L319.191 440.868L244.436 488.03C232.44 495.64 219.17 502.796 208.105 511.703C219.459 519.991 231.792 527.112 243.646 534.667L308.051 575.908L496.127 696.534C498.975 698.329 510.291 706.088 512.908 706.209ZM490.949 875.408C491.25 830.119 491.274 784.829 491.023 739.54C419.706 695.065 348.646 650.179 277.847 604.885C248.012 585.468 217.966 566.377 187.715 547.615C180.359 543.017 173.035 538.368 165.742 533.67C160.079 530.025 154.142 525.852 147.998 523.079C148.814 538.687 149.72 554.238 152.252 569.681C165.389 649.786 206.171 726.932 266.582 781.439C317.817 827.682 381.022 858.586 448.982 870.625C462.964 873.101 476.882 873.884 490.949 875.408ZM485.829 148.704C463.845 150.934 442.228 153.734 420.784 159.233C348.273 177.826 279.456 221.269 232.097 279.331C179.098 344.306 151.81 418.033 147.837 501.611L151.954 498.563C172.798 485.629 193.35 472.198 214.027 458.998L401.34 339.128L456.673 303.676C467.9 296.47 479.271 288.754 491.014 282.424C491.268 252.642 491.304 222.859 491.121 193.076C491.064 178.438 492.017 163.037 490.546 148.501C489.032 148.546 487.31 148.451 485.829 148.704ZM532.254 282.801C545.702 290.218 558.449 298.912 571.436 307.099L635.704 347.771L798.038 451.319L839.352 477.876C851.296 485.713 863.023 493.772 875.241 501.189C877.748 497.621 872.111 456.001 870.942 449.305C853.493 353.164 798.693 267.84 718.521 211.983C663.529 173.87 599.022 151.798 532.209 148.233L532.254 282.801ZM874.925 523.434C852.004 537.144 829.697 551.983 807.167 566.33L681.142 646.514L593.59 702.243C573.157 715.109 551.889 727.451 532.321 741.607C532.533 754.637 531.654 872.686 533.169 875.637C549.411 873.795 565.45 872.452 581.514 869.218C667.516 852.603 744.674 805.61 798.899 736.82C839.635 685.575 868.395 616.764 874.267 551.379C874.878 544.568 876.402 531.17 875.874 524.85C875.847 524.526 875.745 524.01 875.693 523.718L874.925 523.434Z"/>
	<path fill="#1E314C" d="M425.063 415.782C429.764 416.732 443.668 431.706 447.668 435.52C435.861 444.855 424.847 455.753 413.553 465.743C396.172 481.117 378.436 496.1 361.314 511.764C376.274 523.832 390.393 537.421 404.784 550.195C419.554 563.305 434.986 575.981 449.293 589.578C442.299 596.173 435.418 603.017 427.996 609.13C425.003 608.589 328.053 521.164 317.838 511.913C322.462 506.789 327.997 502.327 333.179 497.78L355.798 477.884C379.086 457.407 402.175 436.706 425.063 415.782Z"/>
	<path fill="#1E314C" d="M595.405 415.81C599.077 417.061 697.729 505.023 705.1 512.37L640.049 570.184C625.915 582.705 611.476 594.879 598.046 608.166L597.597 608.365C594.076 606.868 578.927 591.77 575.474 588.195C604.457 563.326 633.17 538.143 661.607 512.651C654.622 505.747 646.869 499.39 639.512 492.875C617.82 473.667 595.346 455.153 574.091 435.477C581.239 430.823 589.216 421.9 595.405 415.81Z"/>
	<path fill="#1E314C" d="M527.371 383.59C536.365 384.846 545.255 388.941 553.983 391.445L496.722 639.324C487.63 636.85 478.476 632.054 469.819 628.283C470.806 621.749 472.753 615.231 474.316 608.805L480.806 580.991L504.344 479.849L519.308 417.333C521.477 407.982 524.15 391.68 527.371 383.59Z"/>
	<path fill="#3190AD" d="M247.423 632.015C251.807 634.227 256.053 637.343 260.22 639.979C267.743 644.742 275.295 649.461 282.874 654.135L367.698 707.166L426.489 743.94C435.156 749.453 445.226 754.837 452.904 761.592L452.989 819.145C445.458 815.024 438.204 809.935 430.917 805.359L384.348 776.046L247.423 690.701C247.525 671.139 247.525 651.577 247.423 632.015Z"/>
	<defs>
		<linearGradient id="gradient_0" gradientUnits="userSpaceOnUse" x1="614.95221" y1="842.20465" x2="730.74768" y2="610.39514">
			<stop offset="0" stop-color="#2781A3"/>
			<stop offset="1" stop-color="#3A96AF"/>
		</linearGradient>
	</defs>
	<path fill="url(#gradient_0)" d="M776.513 631.843C777.05 632.008 776.69 631.867 777.487 632.47C777.72 651.671 777.525 670.894 777.517 690.097C772.519 693.725 766.862 696.803 761.578 700.006C753.926 704.626 746.331 709.338 738.794 714.141L630.89 781.641C610.333 794.549 588.878 806.967 569.474 821.56L568.907 821.057C567.767 815.612 568.536 808.635 568.533 803.003L568.545 764.244C591.388 750.619 613.159 735.2 635.605 720.924L776.513 631.843Z"/>
	<path fill="#4BB4BA" d="M568.439 202.725C578.793 208.262 588.574 215.051 598.485 221.338L642.927 249.173L777.233 333.201C777.862 340.313 777.512 347.782 777.517 354.937L777.504 393.291C762.073 384.767 747.255 374.253 732.393 364.75L656.42 316.979L596.325 279.568C589.228 275.162 574.624 267.201 568.886 262.098C567.896 242.427 568.457 222.429 568.439 202.725Z"/>
	<path fill="#4BB4BA" d="M453.641 203.83C454.158 203.976 453.81 203.842 454.545 204.493C455.324 223.535 454.534 242.944 454.525 262.025C446.256 268.366 436.648 273.591 427.762 279.059L390.112 302.711C343.011 332.859 295.604 362.525 247.898 391.705L247.434 391.584C246.292 389.575 246.974 338.78 246.999 332.878C262.487 322.345 279.139 313.017 295.037 303.072C347.873 270.022 401.65 238.194 453.641 203.83Z"/>
</svg>
